# Bin Model - Converted from SDF
# Origin at center bottom of bin
# +X towards front, +Y to left, +Z up

# Material
mtllib bin.mtl
usemtl red_material

# Front wall: pose(0.22, 0, 0.105), size(0.05, 0.63, 0.21)
v 0.195 -0.315 0.0
v 0.245 -0.315 0.0
v 0.245 0.315 0.0
v 0.195 0.315 0.0
v 0.195 -0.315 0.21
v 0.245 -0.315 0.21
v 0.245 0.315 0.21
v 0.195 0.315 0.21

# Back wall: pose(-0.22, 0, 0.105), size(0.05, 0.63, 0.21)
v -0.245 -0.315 0.0
v -0.195 -0.315 0.0
v -0.195 0.315 0.0
v -0.245 0.315 0.0
v -0.245 -0.315 0.21
v -0.195 -0.315 0.21
v -0.195 0.315 0.21
v -0.245 0.315 0.21

# Left wall: pose(0, 0.29, 0.105), size(0.49, 0.05, 0.21)
v -0.245 0.265 0.0
v 0.245 0.265 0.0
v 0.245 0.315 0.0
v -0.245 0.315 0.0
v -0.245 0.265 0.21
v 0.245 0.265 0.21
v 0.245 0.315 0.21
v -0.245 0.315 0.21

# Right wall: pose(0, -0.29, 0.105), size(0.49, 0.05, 0.21)
v -0.245 -0.315 0.0
v 0.245 -0.315 0.0
v 0.245 -0.265 0.0
v -0.245 -0.265 0.0
v -0.245 -0.315 0.21
v 0.245 -0.315 0.21
v 0.245 -0.265 0.21
v -0.245 -0.265 0.21

# Bottom: pose(0, 0, 0.0075), size(0.49, 0.63, 0.015)
v -0.245 -0.315 0.0
v 0.245 -0.315 0.0
v 0.245 0.315 0.0
v -0.245 0.315 0.0
v -0.245 -0.315 0.015
v 0.245 -0.315 0.015
v 0.245 0.315 0.015
v -0.245 0.315 0.015

# Slope: pose(0.182, 0, 0.102), size(0.05, 0.63, 0.21), rotation(0, 0.35, 0)
# Rotation of 0.35 radians around Y axis
# cos(0.35) ≈ 0.9394, sin(0.35) ≈ 0.3429
v 0.134 -0.315 0.030
v 0.230 -0.315 0.102
v 0.230 0.315 0.102
v 0.134 0.315 0.030
v 0.098 -0.315 0.174
v 0.194 -0.315 0.246
v 0.194 0.315 0.246
v 0.098 0.315 0.174

# Faces for Front wall (vertices 1-8)
f 1 2 6 5
f 2 3 7 6
f 3 4 8 7
f 4 1 5 8
f 5 6 7 8
f 4 3 2 1

# Faces for Back wall (vertices 9-16)
f 9 10 14 13
f 10 11 15 14
f 11 12 16 15
f 12 9 13 16
f 13 14 15 16
f 12 11 10 9

# Faces for Left wall (vertices 17-24)
f 17 18 22 21
f 18 19 23 22
f 19 20 24 23
f 20 17 21 24
f 21 22 23 24
f 20 19 18 17

# Faces for Right wall (vertices 25-32)
f 25 26 30 29
f 26 27 31 30
f 27 28 32 31
f 28 25 29 32
f 29 30 31 32
f 28 27 26 25

# Faces for Bottom (vertices 33-40)
f 33 34 38 37
f 34 35 39 38
f 35 36 40 39
f 36 33 37 40
f 37 38 39 40
f 36 35 34 33

# Faces for Slope (vertices 41-48)
f 41 42 46 45
f 42 43 47 46
f 43 44 48 47
f 44 41 45 48
f 45 46 47 48
f 44 43 42 41