# File produced by Open Asset Import Library (http://www.assimp.sf.net)
# (assimp v6.0.0)

mtllib construction_cone.mtl

# 498 vertex positions
v -0.0251460001 0 0.0170180015
v -0.0251460001 0 -0.0170180015
v -0.0170180015 0 -0.0251460001
v -0.0170180015 0 -0.0251460001
v 0.0170180015 0 -0.0251460001
v 0.0251460001 0 -0.0170180015
v -0.0251460001 0 0.0170180015
v -0.0170180015 0 -0.0251460001
v 0.0251460001 0 -0.0170180015
v 0.0251460001 0 -0.0170180015
v 0.0251460001 0 0.0170180015
v 0.0170180015 0 0.0251460001
v -0.0251460001 0 0.0170180015
v 0.0251460001 0 -0.0170180015
v 0.0170180015 0 0.0251460001
v -0.0170180015 0 0.0251460001
v -0.0251460001 0 0.0170180015
v 0.0170180015 0 0.0251460001
v -0.0170180015 0 0.0251460001
v 0.0170180015 0 0.0251460001
v 0.0170180015 0.00658113742 0.0251460001
v 0.0170180015 0.00658113742 0.0251460001
v -0.0170180015 0.00658113742 0.0251460001
v -0.0170180015 0 0.0251460001
v 0.0251460001 0 0.0170180015
v 0.0251460001 0 -0.0170180015
v 0.0251460001 0.00658113742 -0.0170180015
v 0.0251460001 0.00658113742 -0.0170180015
v 0.0251460001 0.00658113742 0.0170180015
v 0.0251460001 0 0.0170180015
v 0.0170180015 0 -0.0251460001
v -0.0170180015 0 -0.0251460001
v -0.0170180015 0.00658113742 -0.0251460001
v -0.0170180015 0.00658113742 -0.0251460001
v 0.0170180015 0.00658113742 -0.0251460001
v 0.0170180015 0 -0.0251460001
v -0.0251460001 0 -0.0170180015
v -0.0251460001 0 0.0170180015
v -0.0251460001 0.00658113742 0.0170180015
v -0.0251460001 0.00658113742 0.0170180015
v -0.0251460001 0.00658113742 -0.0170180015
v -0.0251460001 0 -0.0170180015
v 0.0170180015 0 0.0251460001
v 0.0251460001 0 0.0170180015
v 0.0251460001 0.00658113742 0.0170180015
v 0.0251460001 0.00658113742 0.0170180015
v 0.0170180015 0.00658113742 0.0251460001
v 0.0170180015 0 0.0251460001
v -0.0170180015 0.00658113742 0.0251460001
v -0.0251460001 0.00658113742 0.0170180015
v -0.0251460001 0 0.0170180015
v -0.0251460001 0 0.0170180015
v -0.0170180015 0 0.0251460001
v -0.0170180015 0.00658113742 0.0251460001
v 0.0251460001 0 -0.0170180015
v 0.0170180015 0 -0.0251460001
v 0.0170180015 0.00658113742 -0.0251460001
v 0.0170180015 0.00658113742 -0.0251460001
v 0.0251460001 0.00658113742 -0.0170180015
v 0.0251460001 0 -0.0170180015
v -0.0170180015 0 -0.0251460001
v -0.0251460001 0 -0.0170180015
v -0.0251460001 0.00658113742 -0.0170180015
v -0.0251460001 0.00658113742 -0.0170180015
v -0.0170180015 0.00658113742 -0.0251460001
v -0.0170180015 0 -0.0251460001
v -0.0165971592 0.00759713724 0.0241299998
v -0.0170180015 0.00658113742 0.0251460001
v 0.0170180015 0.00658113742 0.0251460001
v 0.0170180015 0.00658113742 0.0251460001
v 0.0165971592 0.00759713724 0.0241299998
v -0.0165971592 0.00759713724 0.0241299998
v 0.0241299998 0.00759713724 0.0165971592
v 0.0251460001 0.00658113742 0.0170180015
v 0.0251460001 0.00658113742 -0.0170180015
v 0.0251460001 0.00658113742 -0.0170180015
v 0.0241299998 0.00759713724 -0.0165971592
v 0.0241299998 0.00759713724 0.0165971592
v 0.0165971592 0.00759713724 -0.0241299998
v 0.0170180015 0.00658113742 -0.0251460001
v -0.0170180015 0.00658113742 -0.0251460001
v -0.0170180015 0.00658113742 -0.0251460001
v -0.0165971592 0.00759713724 -0.0241299998
v 0.0165971592 0.00759713724 -0.0241299998
v -0.0241299998 0.00759713724 -0.0165971592
v -0.0251460001 0.00658113742 -0.0170180015
v -0.0251460001 0.00658113742 0.0170180015
v -0.0251460001 0.00658113742 0.0170180015
v -0.0241299998 0.00759713724 0.0165971592
v -0.0241299998 0.00759713724 -0.0165971592
v -0.0170180015 0.00658113742 0.0251460001
v -0.0165971592 0.00759713724 0.0241299998
v -0.0241299998 0.00759713724 0.0165971592
v -0.0241299998 0.00759713724 0.0165971592
v -0.0251460001 0.00658113742 0.0170180015
v -0.0170180015 0.00658113742 0.0251460001
v 0.0251460001 0.00658113742 0.0170180015
v 0.0241299998 0.00759713724 0.0165971592
v 0.0165971592 0.00759713724 0.0241299998
v 0.0165971592 0.00759713724 0.0241299998
v 0.0170180015 0.00658113742 0.0251460001
v 0.0251460001 0.00658113742 0.0170180015
v -0.0251460001 0.00658113742 -0.0170180015
v -0.0241299998 0.00759713724 -0.0165971592
v -0.0165971592 0.00759713724 -0.0241299998
v -0.0165971592 0.00759713724 -0.0241299998
v -0.0170180015 0.00658113742 -0.0251460001
v -0.0251460001 0.00658113742 -0.0170180015
v 0.0170180015 0.00658113742 -0.0251460001
v 0.0165971592 0.00759713724 -0.0241299998
v 0.0241299998 0.00759713724 -0.0165971592
v 0.0241299998 0.00759713724 -0.0165971592
v 0.0251460001 0.00658113742 -0.0170180015
v 0.0170180015 0.00658113742 -0.0251460001
v -8.39416625e-09 0.00759713724 0.0194304995
v -0.0165971592 0.00759713724 0.0241299998
v 0.0165971592 0.00759713724 0.0241299998
v 0.0044685686 0.108204007 -0.00257993117
v 0.00515986001 0.108204007 9.02751554e-11
v 0.0179321766 0.00905914884 7.2108064e-10
v 0.0179321766 0.00905914884 7.2108064e-10
v 0.0155297201 0.00905914884 -0.00896608829
v 0.0044685686 0.108204007 -0.00257993117
v 0.00257992884 0.108204007 -0.00446857093
v 0.0044685686 0.108204007 -0.00257993117
v 0.0155297201 0.00905914884 -0.00896608829
v 0.0155297201 0.00905914884 -0.00896608829
v 0.00896608643 0.00905914884 -0.015529722
v 0.00257992884 0.108204007 -0.00446857093
v -1.94077843e-09 0.108204007 -0.00515986234
v 0.00257992884 0.108204007 -0.00446857093
v 0.00896608643 0.00905914884 -0.015529722
v 0.00896608643 0.00905914884 -0.015529722
v -1.35219436e-09 0.00905914884 -0.0179321729
v -1.94077843e-09 0.108204007 -0.00515986234
v -0.00257993396 0.108204007 -0.00446857093
v -1.94077843e-09 0.108204007 -0.00515986234
v -1.35219436e-09 0.00905914884 -0.0179321729
v -1.35219436e-09 0.00905914884 -0.0179321729
v -0.00896608829 0.00905914884 -0.0155297201
v -0.00257993396 0.108204007 -0.00446857093
v -0.00446857372 0.108204007 -0.00257993117
v -0.00257993396 0.108204007 -0.00446857093
v -0.00896608829 0.00905914884 -0.0155297201
v -0.00896608829 0.00905914884 -0.0155297201
v -0.0155297201 0.00905914884 -0.00896608829
v -0.00446857372 0.108204007 -0.00257993117
v -0.00515986234 0.108204007 -6.88842872e-10
v -0.00446857372 0.108204007 -0.00257993117
v -0.0155297201 0.00905914884 -0.00896608829
v -0.0155297201 0.00905914884 -0.00896608829
v -0.0179321766 0.00905914884 -2.13037921e-09
v -0.00515986234 0.108204007 -6.88842872e-10
v -0.00446857372 0.108204007 0.00257992884
v -0.00515986234 0.108204007 -6.88842872e-10
v -0.0179321766 0.00905914884 -2.13037921e-09
v -0.0179321766 0.00905914884 -2.13037921e-09
v -0.015529722 0.00905914884 0.00896608643
v -0.00446857372 0.108204007 0.00257992884
v -0.00257993396 0.108204007 0.00446857093
v -0.00446857372 0.108204007 0.00257992884
v -0.015529722 0.00905914884 0.00896608643
v -0.015529722 0.00905914884 0.00896608643
v -0.00896609388 0.00905914884 0.0155297173
v -0.00257993396 0.108204007 0.00446857093
v -4.11411438e-09 0.108204007 0.00515986234
v -0.00257993396 0.108204007 0.00446857093
v -0.00896609388 0.00905914884 0.0155297173
v -0.00896609388 0.00905914884 0.0155297173
v -8.12843126e-09 0.00905914884 0.0179321729
v -4.11411438e-09 0.108204007 0.00515986234
v 0.00257992628 0.108204007 0.00446857372
v -4.11411438e-09 0.108204007 0.00515986234
v -8.12843126e-09 0.00905914884 0.0179321729
v -8.12843126e-09 0.00905914884 0.0179321729
v 0.00896607805 0.00905914884 0.015529722
v 0.00257992628 0.108204007 0.00446857372
v 0.0044685686 0.108204007 0.00257993396
v 0.00257992628 0.108204007 0.00446857372
v 0.00896607805 0.00905914884 0.015529722
v 0.00896607805 0.00905914884 0.015529722
v 0.0155297145 0.00905914884 0.00896609854
v 0.0044685686 0.108204007 0.00257993396
v 0.0044685686 0.108204007 -0.00257993117
v 0.00367354858 0.108888879 -0.00212092558
v 0.00424184836 0.108888879 1.27523492e-10
v 0.00424184836 0.108888879 1.27523492e-10
v 0.00515986001 0.108204007 9.02751554e-11
v 0.0044685686 0.108204007 -0.00257993117
v 0.00257992884 0.108204007 -0.00446857093
v 0.00212092372 0.108888879 -0.00367355114
v 0.00367354858 0.108888879 -0.00212092558
v 0.00367354858 0.108888879 -0.00212092558
v 0.0044685686 0.108204007 -0.00257993117
v 0.00257992884 0.108204007 -0.00446857093
v -1.94077843e-09 0.108204007 -0.00515986234
v -2.01074268e-09 0.108888879 -0.00424185302
v 0.00212092372 0.108888879 -0.00367355114
v 0.00212092372 0.108888879 -0.00367355114
v 0.00257992884 0.108204007 -0.00446857093
v -1.94077843e-09 0.108204007 -0.00515986234
v -0.00257993396 0.108204007 -0.00446857093
v -0.00212092767 0.108888879 -0.00367355114
v -2.01074268e-09 0.108888879 -0.00424185302
v -2.01074268e-09 0.108888879 -0.00424185302
v -1.94077843e-09 0.108204007 -0.00515986234
v -0.00257993396 0.108204007 -0.00446857093
v -0.00446857372 0.108204007 -0.00257993117
v -0.00367355114 0.108888879 -0.00212092558
v -0.00212092767 0.108888879 -0.00367355114
v -0.00212092767 0.108888879 -0.00367355114
v -0.00257993396 0.108204007 -0.00446857093
v -0.00446857372 0.108204007 -0.00257993117
v -0.00515986234 0.108204007 -6.88842872e-10
v -0.00424185302 0.108888879 -5.12978382e-10
v -0.00367355114 0.108888879 -0.00212092558
v -0.00367355114 0.108888879 -0.00212092558
v -0.00446857372 0.108204007 -0.00257993117
v -0.00515986234 0.108204007 -6.88842872e-10
v -0.00446857372 0.108204007 0.00257992884
v -0.00367355347 0.108888879 0.00212092442
v -0.00424185302 0.108888879 -5.12978382e-10
v -0.00424185302 0.108888879 -5.12978382e-10
v -0.00515986234 0.108204007 -6.88842872e-10
v -0.00446857372 0.108204007 0.00257992884
v -0.00257993396 0.108204007 0.00446857093
v -0.00212092814 0.108888879 0.00367355114
v -0.00367355347 0.108888879 0.00212092442
v -0.00367355347 0.108888879 0.00212092442
v -0.00446857372 0.108204007 0.00257992884
v -0.00257993396 0.108204007 0.00446857093
v -4.11411438e-09 0.108204007 0.00515986234
v -3.7974015e-09 0.108888879 0.00424185302
v -0.00212092814 0.108888879 0.00367355114
v -0.00212092814 0.108888879 0.00367355114
v -0.00257993396 0.108204007 0.00446857093
v -4.11411438e-09 0.108204007 0.00515986234
v 0.00257992628 0.108204007 0.00446857372
v 0.00212092185 0.108888879 0.00367355114
v -3.7974015e-09 0.108888879 0.00424185302
v -3.7974015e-09 0.108888879 0.00424185302
v -4.11411438e-09 0.108204007 0.00515986234
v 0.00257992628 0.108204007 0.00446857372
v 0.0044685686 0.108204007 0.00257993396
v 0.00367354858 0.108888879 0.00212092861
v 0.00212092185 0.108888879 0.00367355114
v 0.00212092185 0.108888879 0.00367355114
v 0.00257992628 0.108204007 0.00446857372
v 0.0044685686 0.108204007 0.00257993396
v 0.00515986001 0.108204007 9.02751554e-11
v 0.00424184836 0.108888879 1.27523492e-10
v 0.00367354858 0.108888879 0.00212092861
v 0.00367354858 0.108888879 0.00212092861
v 0.0044685686 0.108204007 0.00257993396
v 0.00515986001 0.108204007 9.02751554e-11
v 0.00332383905 0.108204007 1.64772085e-10
v 0.00287852855 0.108204007 -0.00166192034
v -2.22362528e-09 0.102595277 6.30816649e-11
v 0.00287852855 0.108204007 -0.00166192034
v 0.00166191859 0.108204007 -0.00287853112
v -2.22362528e-09 0.102595277 6.30816649e-11
v 0.00166191859 0.108204007 -0.00287853112
v -2.0807045e-09 0.108204007 -0.00332384137
v -2.22362528e-09 0.102595277 6.30816649e-11
v -2.0807045e-09 0.108204007 -0.00332384137
v -0.00166192255 0.108204007 -0.00287853112
v -2.22362528e-09 0.102595277 6.30816649e-11
v -0.00166192255 0.108204007 -0.00287853112
v -0.00287853112 0.108204007 -0.00166192034
v -2.22362528e-09 0.102595277 6.30816649e-11
v -0.00287853112 0.108204007 -0.00166192034
v -0.00332384137 0.108204007 -3.37113865e-10
v -2.22362528e-09 0.102595277 6.30816649e-11
v -0.00332384137 0.108204007 -3.37113865e-10
v -0.00287853368 0.108204007 0.00166191976
v -2.22362528e-09 0.102595277 6.30816649e-11
v -0.00287853368 0.108204007 0.00166191976
v -0.0016619229 0.108204007 0.00287853112
v -2.22362528e-09 0.102595277 6.30816649e-11
v -0.0016619229 0.108204007 0.00287853112
v -3.48071438e-09 0.108204007 0.00332384137
v -2.22362528e-09 0.102595277 6.30816649e-11
v -3.48071438e-09 0.108204007 0.00332384137
v 0.00166191708 0.108204007 0.00287853112
v -2.22362528e-09 0.102595277 6.30816649e-11
v 0.00166191708 0.108204007 0.00287853112
v 0.00287852855 0.108204007 0.00166192278
v -2.22362528e-09 0.102595277 6.30816649e-11
v 0.00287852855 0.108204007 0.00166192278
v 0.00332383905 0.108204007 1.64772085e-10
v -2.22362528e-09 0.102595277 6.30816649e-11
v 0.00515986001 0.108204007 9.02751554e-11
v 0.0044685686 0.108204007 0.00257993396
v 0.0155297145 0.00905914884 0.00896609854
v 0.0155297145 0.00905914884 0.00896609854
v 0.0179321766 0.00905914884 7.2108064e-10
v 0.00515986001 0.108204007 9.02751554e-11
v 0.0194305014 0.00759713724 8.06254397e-10
v 0.016792167 0.00759713724 0.0100423088
v 0.0241299998 0.00759713724 0.0165971592
v 0.0241299998 0.00759713724 -0.0165971592
v 0.0167921707 0.00759713724 -0.0100422986
v 0.0194305014 0.00759713724 8.06254397e-10
v 0.0194305014 0.00759713724 8.06254397e-10
v 0.0241299998 0.00759713724 0.0165971592
v 0.0241299998 0.00759713724 -0.0165971592
v 0.0165971592 0.00759713724 0.0241299998
v 0.0100422883 0.00759713724 0.0167921744
v -8.39416625e-09 0.00759713724 0.0194304995
v -0.0194304995 0.00759713724 -2.25433139e-09
v -0.0241299998 0.00759713724 -0.0165971592
v -0.0241299998 0.00759713724 0.0165971592
v 0.0165971592 0.00759713724 0.0241299998
v 0.0241299998 0.00759713724 0.0165971592
v 0.016792167 0.00759713724 0.0100423088
v 0.016792167 0.00759713724 0.0100423088
v 0.0100422883 0.00759713724 0.0167921744
v 0.0165971592 0.00759713724 0.0241299998
v -0.0165971592 0.00759713724 0.0241299998
v -8.39416625e-09 0.00759713724 0.0194304995
v -0.0100423042 0.00759713724 0.016792167
v -0.0100423042 0.00759713724 0.016792167
v -0.0167921707 0.00759713724 0.0100422939
v -0.0241299998 0.00759713724 0.0165971592
v -0.0241299998 0.00759713724 0.0165971592
v -0.0165971592 0.00759713724 0.0241299998
v -0.0100423042 0.00759713724 0.016792167
v -0.0241299998 0.00759713724 0.0165971592
v -0.0167921707 0.00759713724 0.0100422939
v -0.0194304995 0.00759713724 -2.25433139e-09
v -1.28570488e-09 0.00759713724 -0.0194305014
v 0.0165971592 0.00759713724 -0.0241299998
v -0.0165971592 0.00759713724 -0.0241299998
v -0.0241299998 0.00759713724 -0.0165971592
v -0.0194304995 0.00759713724 -2.25433139e-09
v -0.0167921707 0.00759713724 -0.0100422986
v -0.0167921707 0.00759713724 -0.0100422986
v -0.0100422986 0.00759713724 -0.016792167
v -0.0165971592 0.00759713724 -0.0241299998
v -0.0165971592 0.00759713724 -0.0241299998
v -0.0241299998 0.00759713724 -0.0165971592
v -0.0167921707 0.00759713724 -0.0100422986
v -0.0165971592 0.00759713724 -0.0241299998
v -0.0100422986 0.00759713724 -0.016792167
v -1.28570488e-09 0.00759713724 -0.0194305014
v 0.0167921707 0.00759713724 -0.0100422986
v 0.0241299998 0.00759713724 -0.0165971592
v 0.0165971592 0.00759713724 -0.0241299998
v 0.0165971592 0.00759713724 -0.0241299998
v 0.0100422967 0.00759713724 -0.0167921707
v 0.0167921707 0.00759713724 -0.0100422986
v 0.0165971592 0.00759713724 -0.0241299998
v -1.28570488e-09 0.00759713724 -0.0194305014
v 0.0100422967 0.00759713724 -0.0167921707
v -0.0167921707 0.00759713724 -0.0100422986
v -0.0155297201 0.00905914884 -0.00896608829
v -0.00896608829 0.00905914884 -0.0155297201
v -0.00896608829 0.00905914884 -0.0155297201
v -0.0100422986 0.00759713724 -0.016792167
v -0.0167921707 0.00759713724 -0.0100422986
v -0.0194304995 0.00759713724 -2.25433139e-09
v -0.0179321766 0.00905914884 -2.13037921e-09
v -0.0155297201 0.00905914884 -0.00896608829
v -0.0155297201 0.00905914884 -0.00896608829
v -0.0167921707 0.00759713724 -0.0100422986
v -0.0194304995 0.00759713724 -2.25433139e-09
v -0.0167921707 0.00759713724 0.0100422939
v -0.015529722 0.00905914884 0.00896608643
v -0.0179321766 0.00905914884 -2.13037921e-09
v -0.0179321766 0.00905914884 -2.13037921e-09
v -0.0194304995 0.00759713724 -2.25433139e-09
v -0.0167921707 0.00759713724 0.0100422939
v -0.0100423042 0.00759713724 0.016792167
v -0.00896609388 0.00905914884 0.0155297173
v -0.015529722 0.00905914884 0.00896608643
v -0.015529722 0.00905914884 0.00896608643
v -0.0167921707 0.00759713724 0.0100422939
v -0.0100423042 0.00759713724 0.016792167
v 0.0179321766 0.00905914884 7.2108064e-10
v 0.0194305014 0.00759713724 8.06254397e-10
v 0.0167921707 0.00759713724 -0.0100422986
v 0.0167921707 0.00759713724 -0.0100422986
v 0.0155297201 0.00905914884 -0.00896608829
v 0.0179321766 0.00905914884 7.2108064e-10
v 0.0155297201 0.00905914884 -0.00896608829
v 0.0167921707 0.00759713724 -0.0100422986
v 0.0100422967 0.00759713724 -0.0167921707
v 0.0100422967 0.00759713724 -0.0167921707
v 0.00896608643 0.00905914884 -0.015529722
v 0.0155297201 0.00905914884 -0.00896608829
v 0.00896608643 0.00905914884 -0.015529722
v 0.0100422967 0.00759713724 -0.0167921707
v -1.28570488e-09 0.00759713724 -0.0194305014
v -1.28570488e-09 0.00759713724 -0.0194305014
v -1.35219436e-09 0.00905914884 -0.0179321729
v 0.00896608643 0.00905914884 -0.015529722
v -1.35219436e-09 0.00905914884 -0.0179321729
v -1.28570488e-09 0.00759713724 -0.0194305014
v -0.0100422986 0.00759713724 -0.016792167
v -0.0100422986 0.00759713724 -0.016792167
v -0.00896608829 0.00905914884 -0.0155297201
v -1.35219436e-09 0.00905914884 -0.0179321729
v -0.00896609388 0.00905914884 0.0155297173
v -0.0100423042 0.00759713724 0.016792167
v -8.39416625e-09 0.00759713724 0.0194304995
v -8.39416625e-09 0.00759713724 0.0194304995
v -8.12843126e-09 0.00905914884 0.0179321729
v -0.00896609388 0.00905914884 0.0155297173
v -8.12843126e-09 0.00905914884 0.0179321729
v -8.39416625e-09 0.00759713724 0.0194304995
v 0.0100422883 0.00759713724 0.0167921744
v 0.0100422883 0.00759713724 0.0167921744
v 0.00896607805 0.00905914884 0.015529722
v -8.12843126e-09 0.00905914884 0.0179321729
v 0.0155297145 0.00905914884 0.00896609854
v 0.016792167 0.00759713724 0.0100423088
v 0.0194305014 0.00759713724 8.06254397e-10
v 0.0194305014 0.00759713724 8.06254397e-10
v 0.0179321766 0.00905914884 7.2108064e-10
v 0.0155297145 0.00905914884 0.00896609854
v 0.00896607805 0.00905914884 0.015529722
v 0.0100422883 0.00759713724 0.0167921744
v 0.016792167 0.00759713724 0.0100423088
v 0.016792167 0.00759713724 0.0100423088
v 0.0155297145 0.00905914884 0.00896609854
v 0.00896607805 0.00905914884 0.015529722
v 0.00287852855 0.108204007 -0.00166192034
v 0.00332383905 0.108204007 1.64772085e-10
v 0.00424184836 0.108888879 1.27523492e-10
v 0.00424184836 0.108888879 1.27523492e-10
v 0.00367354858 0.108888879 -0.00212092558
v 0.00287852855 0.108204007 -0.00166192034
v 0.00166191859 0.108204007 -0.00287853112
v 0.00287852855 0.108204007 -0.00166192034
v 0.00367354858 0.108888879 -0.00212092558
v 0.00367354858 0.108888879 -0.00212092558
v 0.00212092372 0.108888879 -0.00367355114
v 0.00166191859 0.108204007 -0.00287853112
v -2.0807045e-09 0.108204007 -0.00332384137
v 0.00166191859 0.108204007 -0.00287853112
v 0.00212092372 0.108888879 -0.00367355114
v 0.00212092372 0.108888879 -0.00367355114
v -2.01074268e-09 0.108888879 -0.00424185302
v -2.0807045e-09 0.108204007 -0.00332384137
v -0.00166192255 0.108204007 -0.00287853112
v -2.0807045e-09 0.108204007 -0.00332384137
v -2.01074268e-09 0.108888879 -0.00424185302
v -2.01074268e-09 0.108888879 -0.00424185302
v -0.00212092767 0.108888879 -0.00367355114
v -0.00166192255 0.108204007 -0.00287853112
v -0.00287853112 0.108204007 -0.00166192034
v -0.00166192255 0.108204007 -0.00287853112
v -0.00212092767 0.108888879 -0.00367355114
v -0.00212092767 0.108888879 -0.00367355114
v -0.00367355114 0.108888879 -0.00212092558
v -0.00287853112 0.108204007 -0.00166192034
v -0.00332384137 0.108204007 -3.37113865e-10
v -0.00287853112 0.108204007 -0.00166192034
v -0.00367355114 0.108888879 -0.00212092558
v -0.00367355114 0.108888879 -0.00212092558
v -0.00424185302 0.108888879 -5.12978382e-10
v -0.00332384137 0.108204007 -3.37113865e-10
v -0.00287853368 0.108204007 0.00166191976
v -0.00332384137 0.108204007 -3.37113865e-10
v -0.00424185302 0.108888879 -5.12978382e-10
v -0.00424185302 0.108888879 -5.12978382e-10
v -0.00367355347 0.108888879 0.00212092442
v -0.00287853368 0.108204007 0.00166191976
v -0.0016619229 0.108204007 0.00287853112
v -0.00287853368 0.108204007 0.00166191976
v -0.00367355347 0.108888879 0.00212092442
v -0.00367355347 0.108888879 0.00212092442
v -0.00212092814 0.108888879 0.00367355114
v -0.0016619229 0.108204007 0.00287853112
v -3.48071438e-09 0.108204007 0.00332384137
v -0.0016619229 0.108204007 0.00287853112
v -0.00212092814 0.108888879 0.00367355114
v -0.00212092814 0.108888879 0.00367355114
v -3.7974015e-09 0.108888879 0.00424185302
v -3.48071438e-09 0.108204007 0.00332384137
v 0.00166191708 0.108204007 0.00287853112
v -3.48071438e-09 0.108204007 0.00332384137
v -3.7974015e-09 0.108888879 0.00424185302
v -3.7974015e-09 0.108888879 0.00424185302
v 0.00212092185 0.108888879 0.00367355114
v 0.00166191708 0.108204007 0.00287853112
v 0.00287852855 0.108204007 0.00166192278
v 0.00166191708 0.108204007 0.00287853112
v 0.00212092185 0.108888879 0.00367355114
v 0.00212092185 0.108888879 0.00367355114
v 0.00367354858 0.108888879 0.00212092861
v 0.00287852855 0.108204007 0.00166192278
v 0.00332383905 0.108204007 1.64772085e-10
v 0.00287852855 0.108204007 0.00166192278
v 0.00367354858 0.108888879 0.00212092861
v 0.00367354858 0.108888879 0.00212092861
v 0.00424184836 0.108888879 1.27523492e-10
v 0.00332383905 0.108204007 1.64772085e-10

# 94 UV coordinates
vt 0.00186803797 0.1436598 0
vt 0.00186803797 0.737824202 0
vt 0.143758103 0.879714012 0
vt 0.73792237 0.879714012 0
vt 0.879812419 0.737824202 0
vt 0.879812419 0.1436598 0
vt 0.73792237 0.00176994002 0
vt 0.143758103 0.00176994002 0
vt 0.231564805 0.894771397 0
vt 0.877704799 0.894771397 0
vt 0.877704799 0.991130888 0
vt 0.231564805 0.991130888 0
vt 0.660769582 0.894771397 0
vt 0.0146296602 0.894771397 0
vt 0.0146296602 0.991130888 0
vt 0.660769582 0.991130888 0
vt 0.0146296304 0.894771397 0
vt 0.0146296304 0.991130888 0
vt 0.151104599 0.0195061993 0
vt 0.730575919 0.0195061993 0
vt 0.862075984 0.151006505 0
vt 0.862075984 0.730477571 0
vt 0.730575919 0.861977816 0
vt 0.151104599 0.861977816 0
vt 0.0196044091 0.730477571 0
vt 0.0196044091 0.151006505 0
vt 0.440840095 0.101544999 0
vt 0.958819985 0.995241225 0
vt 0.932891488 0.995240986 0
vt 0.900800884 0.0253495295 0
vt 0.99091059 0.02534963 0
vt 0.916826129 0.861988127 0
vt 0.906368375 0.855954707 0
vt 0.912435889 0.833281517 0
vt 0.924509525 0.833281517 0
vt 0.89582181 0.883013189 0
vt 0.88978231 0.872560024 0
vt 0.867114604 0.890712082 0
vt 0.867114604 0.878639877 0
vt 0.838407576 0.883013189 0
vt 0.844447017 0.872559786 0
vt 0.817403316 0.861988127 0
vt 0.827861011 0.855954707 0
vt 0.809720278 0.833281517 0
vt 0.821793914 0.833281517 0
vt 0.817403793 0.804574788 0
vt 0.827861428 0.810608208 0
vt 0.838407874 0.783549786 0
vt 0.844447315 0.794003189 0
vt 0.867114723 0.775850594 0
vt 0.867114782 0.787922919 0
vt 0.895821929 0.783549428 0
vt 0.889782488 0.794002771 0
vt 0.916826189 0.804574728 0
vt 0.906368613 0.810608029 0
vt 0.109070003 0.872419596 0
vt 0.0926292837 0.880136311 0
vt 0.0718681216 0.814529777 0
vt 0.0747421086 0.883284271 0
vt 0.0566535518 0.881641686 0
vt 0.0396239199 0.87532258 0
vt 0.0248401109 0.864767015 0
vt 0.0133325504 0.850708485 0
vt 0.00590477185 0.83412993 0
vt 0.00307387509 0.816187024 0
vt 0.00503600994 0.798130929 0
vt 0.0116534 0.781218529 0
vt 0.0224642307 0.766626716 0
vt 0.122918703 0.860670924 0
vt 0.780037284 0.440741986 0
vt 0.73398 0.265434086 0
vt 0.733980119 0.616049826 0
vt 0.616147876 0.147602096 0
vt 0.101643197 0.440742105 0
vt 0.265532315 0.147602201 0
vt 0.147700399 0.265434414 0
vt 0.440840214 0.779939115 0
vt 0.147700399 0.616049826 0
vt 0.265532404 0.733881772 0
vt 0.616147995 0.73388201 0
vt 0.994812787 0.00467746379 0
vt 0.896898925 0.00467754016 0
vt 0.895910382 0.849921823 0
vt 0.900362372 0.833281517 0
vt 0.883742392 0.862106681 0
vt 0.867114604 0.866567612 0
vt 0.850486875 0.862106383 0
vt 0.838318884 0.849921882 0
vt 0.83386749 0.833281517 0
vt 0.838319182 0.816640973 0
vt 0.850487173 0.804456174 0
vt 0.867114782 0.799995184 0
vt 0.883742571 0.804455996 0
vt 0.895910621 0.816640794 0

# 87 vertex normals
vn 0 -0.0253999997 0
vn 0 -0.025399996 0
vn -0.00972016063 0 0.0234665368
vn 0.00972015783 0 0.0234665368
vn 0.0090347752 0.00936883595 0.0218118709
vn -0.0090347752 0.00936883595 0.0218118709
vn 0.0234665368 0 0.00972016063
vn 0.0234665368 0 -0.00972015783
vn 0.0218118709 0.00936883595 -0.0090347752
vn 0.0218118709 0.00936883595 0.0090347752
vn 0.00972016063 0 -0.0234665368
vn -0.00972015783 0 -0.0234665368
vn -0.0090347752 0.00936883595 -0.0218118709
vn 0.0090347752 0.00936883595 -0.0218118709
vn -0.0234665368 0 -0.00972016063
vn -0.0234665368 0 0.00972015783
vn -0.0218118709 0.00936883595 0.0090347752
vn -0.0218118709 0.00936883595 -0.0090347752
vn -0.00425454834 0.0228376295 0.010271389
vn 0.00425454834 0.0228376295 0.010271389
vn 0.010271389 0.0228376295 0.00425454834
vn 0.010271389 0.0228376277 -0.00425454834
vn 0.00425454834 0.0228376295 -0.010271389
vn -0.00425454834 0.0228376277 -0.010271389
vn -0.010271389 0.0228376295 -0.00425454834
vn -0.010271389 0.0228376295 0.00425454834
vn -1.49650696e-05 0.0240530595 0.0081614973
vn 0.0193156619 0.0121531961 -0.0111519033
vn 0.0223038066 0.0121531961 2.17351093e-09
vn 0.0224162526 0.0119444896 2.52261598e-05
vn 0.0193133429 0.0124348365 -0.0108411135
vn 0.0111519052 0.0121531961 -0.0193156619
vn 0.0108216517 0.0124180019 -0.0193350744
vn -1.06457743e-09 0.0121531934 -0.0223038085
vn 2.52188729e-05 0.0119444868 -0.0224162564
vn -0.011151908 0.0121531934 -0.0193156619
vn -0.0108411163 0.0124348318 -0.0193133429
vn -0.0193156656 0.0121531961 -0.0111519005
vn -0.0193350725 0.0124180019 -0.0108216545
vn -0.0223038066 0.0121531934 -2.90984925e-09
vn -0.022416262 0.0119444765 -2.52265436e-05
vn -0.0193156693 0.0121531934 0.0111518977
vn -0.0193133429 0.0124348337 0.0108411107
vn -0.0111519126 0.0121531961 0.0193156563
vn -0.0108216573 0.0124180019 0.0193350688
vn -1.03618794e-08 0.0121531961 0.0223038066
vn -2.5231293e-05 0.0119444821 0.0224162601
vn 0.0111518949 0.0121531961 0.0193156693
vn 0.0108410986 0.012434829 0.0193133522
vn 0.0193156563 0.0121531961 0.0111519108
vn 0.019335065 0.0124180065 0.0108216628
vn 0.00217248732 0.025275819 -0.00125428499
vn 0.00250856881 0.025275819 7.57417795e-10
vn 0.0012542858 0.025275819 -0.0021724843
vn -3.02968678e-10 0.025275819 -0.00250857626
vn -0.00125428627 0.025275819 -0.0021724843
vn -0.0021724836 0.025275819 -0.00125428371
vn -0.00250856625 0.0252758227 3.02968678e-10
vn -0.00217249058 0.025275819 0.0012542865
vn -0.00125428429 0.025275819 0.0021724808
vn -1.55270963e-09 0.025275819 0.00250857463
vn 0.00125428371 0.025275819 0.00217248662
vn 0.00217248732 0.025275819 0.0012542865
vn -0.0184995178 0.0174048264 -2.19876894e-09
vn -0.0160210505 0.0174048282 0.00924975518
vn -1.27134623e-08 0.0253999997 -2.81856205e-09
vn -0.00924975984 0.0174048264 0.0160210449
vn 8.55075732e-10 0.0174048282 0.0184995104
vn 0.00924976263 0.0174048264 0.0160210468
vn 0.0160210542 0.0174048264 0.00924975518
vn 0.0184995178 0.0174048208 2.93169333e-09
vn 0.0160210542 0.0174048208 -0.00924975052
vn 0.00924976543 0.0174048264 -0.0160210468
vn 1.02609148e-08 0.0174048282 -0.0184995122
vn -0.00924975052 0.0174048282 -0.0160210542
vn -0.0160210449 0.0174048264 -0.00924976263
vn 0.00816148985 0.0240530632 1.49634698e-05
vn 0.00658032764 0.0242127199 0.00395013439
vn 0.00658275047 0.0242093783 -0.0039665401
vn 0.00396654243 0.0242093708 0.00658275792
vn -0.00816150289 0.0240530577 -1.49632651e-05
vn -0.00395013904 0.0242127143 0.00658033183
vn -0.00658275513 0.0242093783 0.00396654522
vn 1.49605985e-05 0.0240530632 -0.00816149265
vn -0.00658033509 0.0242127143 -0.00395013718
vn -0.00396654522 0.0242093708 -0.00658275513
vn 0.00395013718 0.0242127143 -0.00658033509

# Mesh 'geom-Box001' with 166 faces
g geom-Box001
usemtl _1_-_Default
f  1/1/1 2/2/1 3/3/2
f  4/3/1 5/4/1 6/5/2
f  7/1/1 8/3/1 9/5/1
f  10/5/1 11/6/1 12/7/2
f  13/1/1 14/5/1 15/7/1
f  16/8/1 17/1/2 18/7/1
f  19/9/3 20/10/4 21/11/5
f  22/11/5 23/12/6 24/9/3
f  25/13/7 26/14/8 27/15/9
f  28/15/9 29/16/10 30/13/7
f  31/9/11 32/10/12 33/11/13
f  34/11/13 35/12/14 36/9/11
f  37/13/15 38/14/16 39/15/17
f  40/15/17 41/16/18 42/13/15
f  43/10/4 44/13/7 45/16/10
f  46/16/10 47/11/5 48/10/4
f  49/16/6 50/11/17 51/10/16
f  52/10/16 53/13/3 54/16/6
f  55/17/8 56/9/11 57/12/14
f  58/12/14 59/18/9 60/17/8
f  61/17/12 62/9/15 63/12/18
f  64/12/18 65/18/13 66/17/12
f  67/19/19 68/8/6 69/7/5
f  70/7/5 71/20/20 72/19/19
f  73/21/21 74/6/10 75/5/9
f  76/5/9 77/22/22 78/21/21
f  79/23/23 80/4/14 81/3/13
f  82/3/13 83/24/24 84/23/23
f  85/25/25 86/2/18 87/1/17
f  88/1/17 89/26/26 90/25/25
f  91/8/6 92/19/19 93/26/26
f  94/26/26 95/1/17 96/8/6
f  97/6/10 98/21/21 99/20/20
f  100/20/20 101/7/5 102/6/10
f  103/2/18 104/25/25 105/24/24
f  106/24/24 107/3/13 108/2/18
f  109/4/14 110/23/23 111/22/22
f  112/22/22 113/5/9 114/4/14
f  115/27/27 116/19/19 117/20/20
f  118/28/28 119/29/29 120/30/30
f  121/30/30 122/31/31 123/28/28
f  124/28/32 125/29/28 126/30/31
f  127/30/31 128/31/33 129/28/32
f  130/28/34 131/29/32 132/30/33
f  133/30/33 134/31/35 135/28/34
f  136/28/36 137/29/34 138/30/35
f  139/30/35 140/31/37 141/28/36
f  142/28/38 143/29/36 144/30/37
f  145/30/37 146/31/39 147/28/38
f  148/28/40 149/29/38 150/30/39
f  151/30/39 152/31/41 153/28/40
f  154/28/42 155/29/40 156/30/41
f  157/30/41 158/31/43 159/28/42
f  160/28/44 161/29/42 162/30/43
f  163/30/43 164/31/45 165/28/44
f  166/28/46 167/29/44 168/30/45
f  169/30/45 170/31/47 171/28/46
f  172/28/48 173/29/46 174/30/47
f  175/30/47 176/31/49 177/28/48
f  178/28/50 179/29/48 180/30/49
f  181/30/49 182/31/51 183/28/50
f  184/32/28 185/33/52 186/34/53
f  187/34/53 188/35/29 189/32/28
f  190/36/32 191/37/54 192/33/52
f  193/33/52 194/32/28 195/36/32
f  196/38/34 197/39/55 198/37/54
f  199/37/54 200/36/32 201/38/34
f  202/40/36 203/41/56 204/39/55
f  205/39/55 206/38/34 207/40/36
f  208/42/38 209/43/57 210/41/56
f  211/41/56 212/40/36 213/42/38
f  214/44/40 215/45/58 216/43/57
f  217/43/57 218/42/38 219/44/40
f  220/46/42 221/47/59 222/45/58
f  223/45/58 224/44/40 225/46/42
f  226/48/44 227/49/60 228/47/59
f  229/47/59 230/46/42 231/48/44
f  232/50/46 233/51/61 234/49/60
f  235/49/60 236/48/44 237/50/46
f  238/52/48 239/53/62 240/51/61
f  241/51/61 242/50/46 243/52/48
f  244/54/50 245/55/63 246/53/62
f  247/53/62 248/52/48 249/54/50
f  250/35/29 251/34/53 252/55/63
f  253/55/63 254/54/50 255/35/29
f  256/56/64 257/57/65 258/58/66
f  259/57/65 260/59/67 261/58/66
f  262/59/67 263/60/68 264/58/66
f  265/60/68 266/61/69 267/58/66
f  268/61/69 269/62/70 270/58/66
f  271/62/70 272/63/71 273/58/66
f  274/63/71 275/64/72 276/58/66
f  277/64/72 278/65/73 279/58/66
f  280/65/73 281/66/74 282/58/66
f  283/66/74 284/67/75 285/58/66
f  286/67/75 287/68/76 288/58/66
f  289/69/76 290/56/64 291/58/66
f  292/28/29 293/29/50 294/30/51
f  295/30/51 296/31/30 297/28/29
f  298/70/77 299/71/78 300/21/21
f  301/22/22 302/72/79 303/70/77
f  304/70/77 305/21/21 306/22/22
f  307/20/20 308/73/80 309/27/27
f  310/74/81 311/25/25 312/26/26
f  313/20/20 314/21/21 315/71/78
f  316/71/78 317/73/80 318/20/20
f  319/19/19 320/27/27 321/75/82
f  322/75/82 323/76/83 324/26/26
f  325/26/26 326/19/19 327/75/82
f  328/26/26 329/76/83 330/74/81
f  331/77/84 332/23/23 333/24/24
f  334/25/25 335/74/81 336/78/85
f  337/78/85 338/79/86 339/24/24
f  340/24/24 341/25/25 342/78/85
f  343/24/24 344/79/86 345/77/84
f  346/72/79 347/22/22 348/23/23
f  349/23/23 350/80/87 351/72/79
f  352/23/23 353/77/84 354/80/87
f  355/81/85 356/31/39 357/30/37
f  358/30/37 359/82/86 360/81/85
f  361/81/81 362/31/41 363/30/39
f  364/30/39 365/82/85 366/81/81
f  367/81/83 368/31/43 369/30/41
f  370/30/41 371/82/81 372/81/83
f  373/81/82 374/31/45 375/30/43
f  376/30/43 377/82/83 378/81/82
f  379/30/30 380/82/77 381/81/79
f  382/81/79 383/31/31 384/30/30
f  385/30/31 386/82/79 387/81/87
f  388/81/87 389/31/33 390/30/31
f  391/30/33 392/82/87 393/81/84
f  394/81/84 395/31/35 396/30/33
f  397/30/35 398/82/84 399/81/86
f  400/81/86 401/31/37 402/30/35
f  403/30/45 404/82/82 405/81/27
f  406/81/27 407/31/47 408/30/45
f  409/30/47 410/82/27 411/81/80
f  412/81/80 413/31/49 414/30/47
f  415/30/51 416/82/78 417/81/77
f  418/81/77 419/31/30 420/30/51
f  421/30/49 422/82/80 423/81/78
f  424/81/78 425/31/51 426/30/49
f  427/83/65 428/84/64 429/34/53
f  430/34/53 431/33/52 432/83/65
f  433/85/67 434/83/65 435/33/52
f  436/33/52 437/37/54 438/85/67
f  439/86/68 440/85/67 441/37/54
f  442/37/54 443/39/55 444/86/68
f  445/87/69 446/86/68 447/39/55
f  448/39/55 449/41/56 450/87/69
f  451/88/70 452/87/69 453/41/56
f  454/41/56 455/43/57 456/88/70
f  457/89/71 458/88/70 459/43/57
f  460/43/57 461/45/58 462/89/71
f  463/90/72 464/89/71 465/45/58
f  466/45/58 467/47/59 468/90/72
f  469/91/73 470/90/72 471/47/59
f  472/47/59 473/49/60 474/91/73
f  475/92/74 476/91/73 477/49/60
f  478/49/60 479/51/61 480/92/74
f  481/93/75 482/92/74 483/51/61
f  484/51/61 485/53/62 486/93/75
f  487/94/76 488/93/75 489/53/62
f  490/53/62 491/55/63 492/94/76
f  493/84/64 494/94/76 495/55/63
f  496/55/63 497/34/53 498/84/64

